# Blender v2.92.0 OBJ File: ''
# www.blender.org
mtllib can.mtl
g Church_OBJ_Candle
v -0.073200 -0.256771 0.127363
v -0.126796 -0.256776 0.073399
v -0.127370 -0.232611 0.073652
v -0.040698 -0.602618 -0.000000
v -0.040321 -0.351533 0.000000
v -0.020161 -0.351533 -0.034920
v -0.020348 -0.602618 -0.035243
v -0.004990 1.156309 0.001125
v -0.009399 1.156309 -0.008330
v -0.007511 1.099657 -0.005897
v 0.004577 1.099657 0.006190
v -0.011124 1.050071 0.002592
v 0.005968 1.050071 0.002592
v -0.011124 1.050071 -0.014104
v 0.004297 1.099657 -0.017703
v -0.000165 1.156309 -0.012637
v 0.016382 1.099657 -0.005615
v 0.005968 1.050071 -0.014104
v 0.080764 1.048382 -0.001119
v -0.072234 1.048382 -0.001119
v -0.033983 1.048382 0.065132
v 0.042516 1.048382 0.065132
v 0.042516 1.048382 -0.067367
v -0.033983 1.048382 -0.067367
v -0.074506 -0.386847 -0.001119
v -0.035119 -0.386847 0.067100
v -0.035119 -0.386847 -0.069336
v -0.215813 -0.411207 -0.012117
v -0.153282 -0.526165 -0.012117
v -0.184628 -0.526165 0.000000
v -0.192693 -0.583487 0.000000
v -0.161348 -0.583487 -0.012117
v -0.178596 -0.254363 0.000000
v -0.147131 -0.254363 -0.012117
v -0.191411 -0.327849 -0.012117
v 0.181645 -0.256080 0.000000
v 0.157331 -0.256080 -0.090742
v 0.157331 -0.231925 -0.090742
v 0.090905 -0.231925 -0.157170
v 0.090905 -0.256080 -0.157170
v 0.000163 -0.231925 -0.181484
v 0.000163 -0.256080 -0.181484
v -0.157007 -0.256080 0.090742
v -0.090579 -0.256080 0.157170
v -0.090579 -0.231925 0.157170
v 0.000161 -0.231925 0.181484
v 0.000161 -0.256080 0.181484
v 0.090903 -0.231925 0.157170
v 0.090903 -0.256080 0.157170
v 0.157331 -0.231925 0.090742
v 0.157331 -0.256080 0.090742
v 0.181645 -0.231925 0.000000
v -0.090579 -0.231925 -0.157170
v -0.090579 -0.256080 -0.157170
v -0.157007 -0.231925 -0.090742
v 0.181092 -0.537647 -0.313659
v 0.000000 -0.537647 -0.362185
v 0.000375 -0.609285 -0.000000
v 0.313662 -0.537647 -0.181092
v 0.362185 -0.537647 0.000000
v 0.313659 -0.537647 0.181093
v -0.313659 -0.600370 0.181092
v -0.362185 -0.600370 0.000000
v 0.001810 -0.672007 -0.000000
v -0.181092 -0.600370 0.313659
v 0.000000 -0.600370 0.362185
v 0.181092 -0.600370 0.313659
v 0.313659 -0.600370 0.181092
v 0.004243 1.156309 -0.003182
v -0.147131 -0.254363 0.012117
v -0.191411 -0.327849 0.012117
v -0.215813 -0.411207 0.012117
v -0.153282 -0.526165 0.012117
v -0.161348 -0.583487 0.012117
v -0.181092 -0.537647 -0.313659
v -0.313659 -0.537647 -0.181092
v -0.362185 -0.537647 0.000000
v -0.247158 -0.411207 0.000000
v -0.222757 -0.327849 0.000000
v 0.043652 -0.386847 0.067100
v 0.083037 -0.386847 -0.001119
v 0.043652 -0.386847 -0.069336
v -0.313659 -0.600370 -0.181092
v -0.181092 -0.600370 -0.313659
v 0.000000 -0.600370 -0.362185
v -0.126796 -0.256776 -0.073399
v -0.073200 -0.256771 -0.127362
v -0.073482 -0.232611 -0.127615
v 0.000197 -0.232608 -0.147433
v 0.000331 -0.256764 -0.147433
v 0.073951 -0.232606 -0.127747
v 0.074231 -0.256757 -0.128000
v 0.127993 -0.232606 -0.073783
v 0.128564 -0.256752 -0.074036
v 0.147783 -0.232606 0.000000
v 0.148501 -0.256749 0.000000
v -0.073482 -0.232611 0.127616
v 0.000331 -0.256764 0.147433
v 0.000197 -0.232608 0.147433
v -0.157007 -0.256080 -0.090742
v -0.181321 -0.231925 0.000000
v -0.181321 -0.256080 0.000000
v -0.157007 -0.231925 0.090742
v 0.020161 -0.351533 -0.034920
v 0.020348 -0.602618 -0.035243
v 0.040321 -0.351533 0.000000
v 0.040696 -0.602618 -0.000000
v 0.020161 -0.351533 0.034920
v 0.020348 -0.602618 0.035243
v -0.020161 -0.351533 0.034920
v -0.020348 -0.602618 0.035243
v 0.073951 -0.232606 0.127747
v 0.127993 -0.232606 0.073784
v 0.128564 -0.256752 0.074037
v 0.074231 -0.256757 0.128000
v -0.313659 -0.537647 0.181093
v -0.181092 -0.537647 0.313659
v 0.000000 -0.537647 0.362185
v 0.181092 -0.537647 0.313659
v 0.181092 -0.600370 -0.313659
v 0.313662 -0.600370 -0.181092
v 0.362185 -0.600370 0.000000
v -0.146367 -0.256779 0.000000
v -0.147085 -0.232611 0.000000
v -0.127370 -0.232611 -0.073652
vt 0.868700 0.966700
vt 0.868700 1.166300
vt 0.807100 1.166300
vt 0.820800 0.361300
vt 0.820800 0.521700
vt 0.798800 0.521700
vt 0.799300 0.361300
vt 0.046600 0.899200
vt 0.054700 0.897200
vt 0.057300 0.917400
vt 0.044000 0.921100
vt 0.060500 0.935900
vt 0.047700 0.937900
vt 0.056500 0.917700
vt 0.071500 0.929500
vt 0.066200 0.908100
vt 0.055800 0.918200
vt 0.042000 0.903300
vt 0.048000 0.897800
vt 0.073000 0.897200
vt 0.082900 0.914700
vt 0.077400 0.926300
vt 0.068500 0.875900
vt 0.057600 0.869400
vt 0.067400 0.855100
vt 0.079600 0.859000
vt 0.630400 0.943300
vt 0.668000 0.943300
vt 0.658700 0.959600
vt 0.639600 0.959600
vt 0.639600 0.926900
vt 0.658700 0.926900
vt 0.366700 0.499000
vt 0.349900 0.499000
vt 0.349900 0.006800
vt 0.366700 0.006800
vt 0.386000 0.499000
vt 0.333300 0.499000
vt 0.333300 0.006800
vt 0.807100 1.223100
vt 0.807100 0.961100
vt 0.868700 0.961100
vt 0.868700 0.827100
vt 0.807100 0.827100
vt 0.868700 1.593800
vt 0.807100 1.593800
vt 0.807100 1.419200
vt 0.868700 2.019500
vt 0.868700 2.291000
vt 0.807100 2.291000
vt 0.807100 2.562500
vt 0.868700 2.562500
vt 0.807100 2.834000
vt 0.868700 2.834000
vt 0.868700 0.664300
vt 0.868700 0.935500
vt 0.807100 0.935500
vt 0.807100 1.206800
vt 0.868700 1.206800
vt 0.807100 1.477800
vt 0.868700 1.477800
vt 0.807100 1.749000
vt 0.868700 1.749000
vt 0.807100 2.019500
vt 0.807100 -0.148400
vt 0.807100 -0.419900
vt 0.868700 -0.419900
vt 0.868700 -0.148400
vt 0.807100 0.122100
vt 0.065600 0.795000
vt 0.054300 0.752800
vt 0.138800 0.752900
vt 0.096600 0.826000
vt 0.138800 0.837400
vt 0.181000 0.826000
vt 0.181500 0.680400
vt 0.138800 0.668700
vt 0.138800 0.752900
vt 0.212800 0.711400
vt 0.223600 0.753400
vt 0.212200 0.795000
vt 0.180900 0.825300
vt 0.047900 0.897900
vt 0.051500 0.890300
vt 0.040300 0.894400
vt 0.043900 0.886700
vt 0.069300 0.876300
vt 0.868700 1.587900
vt 0.807100 1.587900
vt 0.807100 1.417000
vt 0.868700 1.417000
vt 0.807100 1.222800
vt 0.868700 1.222800
vt 0.807100 0.955300
vt 0.868700 0.955300
vt 0.868700 0.821900
vt 0.807100 0.821900
vt 0.065600 0.710700
vt 0.096600 0.679700
vt 0.138800 0.668500
vt 0.868700 1.589800
vt 0.807100 1.589800
vt 0.807100 1.456100
vt 0.868700 1.456100
vt 0.807100 1.194300
vt 0.868700 1.194300
vt 0.807100 0.998200
vt 0.868700 0.998200
vt 0.807100 0.823200
vt 0.868700 0.823200
vt 0.386000 0.006800
vt 0.402600 0.499000
vt 0.402600 0.006800
vt 0.419400 0.499000
vt 0.419400 0.006800
vt 0.438700 0.499000
vt 0.438700 0.006800
vt 0.095900 0.680400
vt 0.064900 0.711400
vt 0.054000 0.753400
vt 0.868700 1.564900
vt 0.868700 1.764200
vt 0.807100 1.764200
vt 0.807100 1.963900
vt 0.868700 1.963900
vt 0.807100 2.163100
vt 0.868700 2.163100
vt 0.807100 2.363300
vt 0.868700 2.363300
vt 0.807100 2.563500
vt 0.868700 2.563500
vt 0.824700 -0.399400
vt 0.824700 0.059600
vt 0.671400 0.059600
vt 0.671400 -0.399400
vt 0.824700 -0.858400
vt 0.671400 -0.858400
vt 0.824700 -1.316400
vt 0.671400 -1.316400
vt 0.807100 0.966700
vt 0.868700 0.767000
vt 0.807100 0.767000
vt 0.868700 0.122100
vt 0.807100 0.393600
vt 0.868700 0.393600
vt 0.807100 0.664300
vt 0.777300 0.521700
vt 0.777300 0.361300
vt 0.755900 0.521700
vt 0.755900 0.361300
vt 0.733900 0.521700
vt 0.733900 0.361300
vt 0.712400 0.521700
vt 0.712400 0.361300
vt 0.690900 0.521700
vt 0.690400 0.361300
vt 0.092300 0.673100
vt 0.101000 0.688200
vt 0.073400 0.716100
vt 0.138800 0.660600
vt 0.138800 0.678200
vt 0.185300 0.673100
vt 0.176600 0.688200
vt 0.219500 0.707300
vt 0.204300 0.715800
vt 0.231900 0.753800
vt 0.214600 0.753800
vt 0.219500 0.800400
vt 0.204300 0.791600
vt 0.185300 0.834400
vt 0.176600 0.819300
vt 0.138800 0.846800
vt 0.138800 0.829500
vt 0.092300 0.834400
vt 0.101000 0.819200
vt 0.058200 0.800400
vt 0.092300 0.834400
vt 0.101200 0.819200
vt 0.073700 0.791500
vt 0.138800 0.846800
vt 0.138800 0.829500
vt 0.185300 0.834400
vt 0.176800 0.819500
vt 0.219500 0.800400
vt 0.204600 0.791700
vt 0.231900 0.753800
vt 0.214800 0.753800
vt 0.219500 0.707300
vt 0.204600 0.715800
vt 0.185300 0.673100
vt 0.176800 0.688200
vt 0.138800 0.660600
vt 0.138800 0.678200
vt 0.092300 0.673100
vt 0.101200 0.688500
vt 0.058200 0.707300
vt 0.671400 0.518300
vt 0.824700 0.518300
vt 0.671400 0.977100
vt 0.824700 0.977100
vt 0.671400 1.435800
vt 0.824700 1.435800
vt 0.671400 1.894500
vt 0.824700 1.894500
vt 0.671400 2.353500
vt 0.824700 2.353500
vt 0.824700 3.730500
vt 0.824700 4.189500
vt 0.671400 4.189500
vt 0.671400 3.730500
vt 0.824700 3.271500
vt 0.671400 3.271500
vt 0.824700 2.812500
vt 0.671400 2.812500
vt 0.058200 0.800400
vt 0.063600 0.753800
vt 0.045700 0.753800
vt 0.073700 0.716100
vt 0.058200 0.707300
vt 0.063300 0.753800
vt 0.045700 0.753800
vt 0.073400 0.791500
vt 0.807100 0.366700
vt 0.807100 0.166000
vt 0.868700 0.166000
vt 0.868700 0.366700
vt 0.807100 0.566900
vt 0.868700 0.566900
vt 0.807100 1.564900
vt 0.868700 1.365500
vt 0.807100 1.365500
vt 0.868700 1.223100
vt 0.868700 1.419200
vt 0.138800 0.836500
vt 0.096600 0.825300
vt 0.065500 0.795000
vt 0.181000 0.679700
vt 0.211900 0.710700
vt 0.223300 0.752800
vt 0.211900 0.795000
vn 0.3186 -0.7727 -0.5490
vn 0.5537 -0.7694 -0.3186
vn 0.5528 0.7703 -0.3177
vn -1.0000 0.0015 0.0000
vn -0.5000 0.0015 -0.8660
vn -0.3126 0.6051 0.7322
vn -0.7703 0.5802 -0.2644
vn -0.9971 0.0764 -0.0011
vn 0.0595 0.0613 0.9963
vn -0.7369 0.0303 0.6753
vn 0.6635 -0.1693 0.7287
vn -0.7370 0.0291 -0.6752
vn 0.0575 0.0615 -0.9964
vn 0.2226 0.6362 -0.7387
vn 0.9987 0.0502 0.0009
vn 0.6637 -0.1683 -0.7288
vn 0.7919 0.6106 0.0000
vn -0.7919 0.6106 0.0000
vn -0.3959 0.6106 0.6858
vn 0.3960 0.6106 0.6858
vn 0.3959 0.6106 -0.6858
vn -0.3959 0.6106 -0.6858
vn -1.0000 0.0016 0.0000
vn -0.5000 0.0016 0.8660
vn -0.5000 0.0016 -0.8660
vn 0.3900 0.0286 -0.9204
vn 0.6464 0.1249 -0.7526
vn -0.9748 -0.2232 0.0000
vn -0.9902 0.1393 0.0000
vn 0.5100 -0.0717 -0.8571
vn -0.8569 0.5155 0.0002
vn 0.6493 -0.3912 -0.6521
vn 0.4623 -0.1888 -0.8664
vn 0.7627 -0.6467 0.0000
vn 0.6605 -0.6467 -0.3814
vn 0.6508 0.6597 -0.3757
vn 0.3758 0.6597 -0.6508
vn 0.3814 -0.6467 -0.6605
vn 0.0000 0.6597 -0.7515
vn 0.0000 -0.6467 -0.7627
vn -0.6605 -0.6467 0.3813
vn -0.3814 -0.6467 0.6605
vn -0.3757 0.6597 0.6508
vn 0.0000 0.6597 0.7515
vn 0.0000 -0.6467 0.7627
vn 0.3757 0.6597 0.6508
vn 0.3814 -0.6467 0.6605
vn 0.6508 0.6597 0.3757
vn 0.6605 -0.6467 0.3814
vn 0.7515 0.6597 0.0000
vn -0.3757 0.6597 -0.6508
vn -0.3814 -0.6467 -0.6605
vn -0.6508 0.6597 -0.3758
vn 0.3501 0.7140 -0.6063
vn 0.0000 0.7139 -0.7002
vn -0.0002 1.0000 0.0000
vn 0.6063 0.7140 -0.3500
vn 0.7002 0.7140 0.0000
vn 0.6063 0.7140 0.3500
vn -0.7005 -0.5881 0.4044
vn -0.8088 -0.5881 0.0000
vn 0.0010 -1.0000 0.0000
vn -0.4045 -0.5879 0.7005
vn -0.0001 -0.5878 0.8090
vn 0.4045 -0.5876 0.7007
vn 0.7008 -0.5875 0.4046
vn 0.6960 0.6650 0.2708
vn 0.6492 -0.3915 0.6521
vn 0.4623 -0.1886 0.8664
vn 0.3900 0.0286 0.9204
vn 0.6464 0.1249 0.7526
vn 0.5100 -0.0717 0.8571
vn -0.3501 0.7139 -0.6064
vn -0.6064 0.7139 -0.3501
vn -0.7002 0.7139 0.0000
vn -0.9961 -0.0884 0.0000
vn -0.9268 0.3755 0.0000
vn 0.5000 0.0016 0.8660
vn 1.0000 0.0016 0.0000
vn 0.5000 0.0016 -0.8660
vn -0.7005 -0.5881 -0.4044
vn -0.4045 -0.5879 -0.7005
vn -0.0001 -0.5878 -0.8090
vn 0.5530 -0.7698 0.3187
vn 0.3179 -0.7734 0.5483
vn 0.3219 0.7675 0.5542
vn 0.0021 0.7630 0.6463
vn 0.0015 -0.7782 0.6280
vn -0.3242 0.7584 0.5655
vn -0.3099 -0.7828 0.5396
vn -0.5674 0.7548 0.3291
vn -0.5349 -0.7860 0.3099
vn -0.6577 0.7533 0.0002
vn -0.6169 -0.7870 0.0002
vn 0.3226 0.7668 -0.5549
vn 0.0015 -0.7774 -0.6290
vn 0.0021 0.7622 -0.6474
vn -0.6605 -0.6467 -0.3813
vn -0.7515 0.6597 0.0000
vn -0.7627 -0.6467 0.0000
vn -0.6508 0.6597 0.3757
vn 0.5000 0.0015 -0.8660
vn 1.0000 0.0015 0.0000
vn 0.5000 0.0015 0.8660
vn -0.5000 0.0015 0.8660
vn -0.3248 0.7576 -0.5661
vn -0.5681 0.7543 -0.3290
vn -0.5356 -0.7856 -0.3098
vn -0.3106 -0.7821 -0.5402
vn -0.6064 0.7139 0.3501
vn -0.3501 0.7139 0.6064
vn 0.0000 0.7139 0.7002
vn 0.3501 0.7140 0.6063
vn 0.4045 -0.5876 -0.7007
vn 0.7008 -0.5875 -0.4046
vn 0.8092 -0.5875 0.0000
vn 0.6400 -0.7683 0.0002
vn 0.6359 0.7717 0.0002
vn 0.5522 0.7707 0.3179
usemtl Church_OBJ_Chandelier_MAT
s 1
f 1/1/1 2/2/2 3/3/3
f 4/4/4 5/5/4 6/6/5
f 6/6/5 7/7/5 4/4/4
f 8/8/6 9/9/7 10/10/8
f 10/10/8 11/11/9 8/8/6
f 12/12/10 13/13/11 11/11/9
f 11/11/9 10/14/8 12/12/10
f 14/15/12 12/12/10 10/14/8
f 10/14/8 15/16/13 14/15/12
f 15/16/13 10/17/8 9/18/7
f 9/18/7 16/19/14 15/16/13
f 17/20/15 15/16/13 16/19/14
f 15/16/13 17/20/15 18/21/16
f 18/21/16 14/22/12 15/16/13
f 17/23/15 11/24/9 13/25/11
f 13/25/11 18/26/16 17/23/15
f 19/27/17 20/28/18 21/29/19
f 21/29/19 22/30/20 19/27/17
f 20/28/18 19/27/17 23/31/21
f 23/31/21 24/32/22 20/28/18
f 21/33/19 20/34/18 25/35/23
f 25/35/23 26/36/24 21/33/19
f 22/37/20 21/33/19 26/36/24
f 20/34/18 24/38/22 27/39/25
f 27/39/25 25/35/23 20/34/18
f 28/40/26 29/41/27 30/42/28
f 31/43/29 30/42/28 29/41/27
f 29/41/27 32/44/30 31/43/29
f 33/45/31 34/46/32 35/47/33
f 36/48/34 37/49/35 38/50/36
f 39/51/37 38/50/36 37/49/35
f 37/49/35 40/52/38 39/51/37
f 41/53/39 39/51/37 40/52/38
f 40/52/38 42/54/40 41/53/39
f 43/55/41 44/56/42 45/57/43
f 46/58/44 45/57/43 44/56/42
f 44/56/42 47/59/45 46/58/44
f 48/60/46 46/58/44 47/59/45
f 47/59/45 49/61/47 48/60/46
f 50/62/48 48/60/46 49/61/47
f 49/61/47 51/63/49 50/62/48
f 52/64/50 50/62/48 51/63/49
f 51/63/49 36/48/34 52/64/50
f 38/50/36 52/64/50 36/48/34
f 53/65/51 41/66/39 42/67/40
f 42/67/40 54/68/52 53/65/51
f 55/69/53 53/65/51 54/68/52
f 56/70/54 57/71/55 58/72/56
f 59/73/57 56/70/54 58/72/56
f 60/74/58 59/73/57 58/72/56
f 60/74/58 58/72/56 61/75/59
f 62/76/60 63/77/61 64/78/62
f 65/79/63 62/76/60 64/78/62
f 66/80/64 65/79/63 64/78/62
f 67/81/65 66/80/64 64/78/62
f 68/82/66 67/81/65 64/78/62
f 16/83/14 69/84/67 17/20/15
f 69/84/67 16/83/14 9/85/7
f 9/85/7 8/86/6 69/84/67
f 69/84/67 8/86/6 11/24/9
f 11/24/9 17/87/15 69/84/67
f 34/88/32 70/89/68 71/90/69
f 71/90/69 35/91/33 34/88/32
f 35/91/33 71/90/69 72/92/70
f 72/92/70 28/93/26 35/91/33
f 28/93/26 72/92/70 73/94/71
f 73/94/71 29/95/27 28/93/26
f 32/96/30 29/95/27 73/94/71
f 73/94/71 74/97/72 32/96/30
f 57/71/55 75/98/73 58/72/56
f 75/98/73 76/99/74 58/72/56
f 76/99/74 77/100/75 58/72/56
f 31/101/29 74/102/72 73/103/71
f 73/103/71 30/104/28 31/101/29
f 30/104/28 73/103/71 72/105/70
f 72/105/70 78/106/76 30/104/28
f 78/106/76 72/105/70 71/107/69
f 71/107/69 79/108/77 78/106/76
f 79/108/77 71/107/69 70/109/68
f 70/109/68 33/110/31 79/108/77
f 26/36/24 80/111/78 22/37/20
f 19/112/17 22/37/20 80/111/78
f 80/111/78 81/113/79 19/112/17
f 23/114/21 19/112/17 81/113/79
f 81/113/79 82/115/80 23/114/21
f 24/116/22 23/114/21 82/115/80
f 82/115/80 27/117/25 24/116/22
f 63/77/61 83/118/81 64/78/62
f 83/118/81 84/119/82 64/78/62
f 84/119/82 85/120/83 64/78/62
f 86/121/84 87/122/85 88/123/86
f 89/124/87 88/123/86 87/122/85
f 87/122/85 90/125/88 89/124/87
f 91/126/89 89/124/87 90/125/88
f 90/125/88 92/127/90 91/126/89
f 93/128/91 91/126/89 92/127/90
f 92/127/90 94/129/92 93/128/91
f 95/130/93 93/128/91 94/129/92
f 94/129/92 96/131/94 95/130/93
f 83/132/81 63/133/61 77/134/75
f 77/134/75 76/135/74 83/132/81
f 84/136/82 83/132/81 76/135/74
f 76/135/74 75/137/73 84/136/82
f 85/138/83 84/136/82 75/137/73
f 75/137/73 57/139/55 85/138/83
f 97/140/95 1/1/1 3/3/3
f 98/141/96 1/1/1 97/140/95
f 97/140/95 99/142/97 98/141/96
f 54/68/52 100/143/98 55/69/53
f 101/144/99 55/69/53 100/143/98
f 100/143/98 102/145/100 101/144/99
f 103/146/101 101/144/99 102/145/100
f 102/145/100 43/55/41 103/146/101
f 45/57/43 103/146/101 43/55/41
f 7/7/5 6/6/5 104/147/102
f 104/147/102 105/148/102 7/7/5
f 105/148/102 104/147/102 106/149/103
f 106/149/103 107/150/103 105/148/102
f 107/150/103 106/149/103 108/151/104
f 108/151/104 109/152/104 107/150/103
f 109/152/104 108/151/104 110/153/105
f 110/153/105 111/154/105 109/152/104
f 111/154/105 110/153/105 5/155/4
f 5/155/4 4/156/4 111/154/105
f 45/157/43 97/158/95 3/159/3
f 97/158/95 45/157/43 46/160/44
f 46/160/44 99/161/97 97/158/95
f 99/161/97 46/160/44 48/162/46
f 48/162/46 112/163/106 99/161/97
f 112/163/106 48/162/46 50/164/48
f 50/164/48 113/165/107 112/163/106
f 113/165/107 50/164/48 52/166/50
f 52/166/50 95/167/93 113/165/107
f 95/167/93 52/166/50 38/168/36
f 38/168/36 93/169/91 95/167/93
f 93/169/91 38/168/36 39/170/37
f 39/170/37 91/171/89 93/169/91
f 91/171/89 39/170/37 41/172/39
f 41/172/39 89/173/87 91/171/89
f 89/173/87 41/172/39 53/174/51
f 53/174/51 88/175/86 89/173/87
f 88/175/86 53/174/51 55/176/53
f 54/177/52 87/178/85 86/179/84
f 87/178/85 54/177/52 42/180/40
f 42/180/40 90/181/88 87/178/85
f 90/181/88 42/180/40 40/182/38
f 40/182/38 92/183/90 90/181/88
f 92/183/90 40/182/38 37/184/35
f 37/184/35 94/185/92 92/183/90
f 94/185/92 37/184/35 36/186/34
f 36/186/34 96/187/94 94/185/92
f 96/187/94 36/186/34 51/188/49
f 51/188/49 114/189/108 96/187/94
f 114/189/108 51/188/49 49/190/47
f 49/190/47 115/191/109 114/189/108
f 115/191/109 49/190/47 47/192/45
f 47/192/45 98/193/96 115/191/109
f 98/193/96 47/192/45 44/194/42
f 44/194/42 1/195/1 98/193/96
f 1/195/1 44/194/42 43/196/41
f 116/197/110 77/134/75 63/133/61
f 63/133/61 62/198/60 116/197/110
f 117/199/111 116/197/110 62/198/60
f 62/198/60 65/200/63 117/199/111
f 118/201/112 117/199/111 65/200/63
f 65/200/63 66/202/64 118/201/112
f 119/203/113 118/201/112 66/202/64
f 66/202/64 67/204/65 119/203/113
f 61/205/59 119/203/113 67/204/65
f 67/204/65 68/206/66 61/205/59
f 120/207/114 85/208/83 57/209/55
f 57/209/55 56/210/54 120/207/114
f 121/211/115 120/207/114 56/210/54
f 56/210/54 59/212/57 121/211/115
f 122/213/116 121/211/115 59/212/57
f 59/212/57 60/214/58 122/213/116
f 68/206/66 122/213/116 60/214/58
f 60/214/58 61/205/59 68/206/66
f 86/179/84 100/215/98 54/177/52
f 100/215/98 86/179/84 123/216/117
f 123/216/117 102/217/100 100/215/98
f 102/217/100 123/216/117 2/218/2
f 2/218/2 43/196/41 102/217/100
f 2/218/2 1/195/1 43/196/41
f 3/159/3 103/219/101 45/157/43
f 103/219/101 3/159/3 124/220/118
f 124/220/118 101/221/99 103/219/101
f 101/221/99 124/220/118 125/222/119
f 125/222/119 55/176/53 101/221/99
f 55/176/53 125/222/119 88/175/86
f 113/223/107 95/224/93 96/225/94
f 96/225/94 114/226/108 113/223/107
f 112/227/106 113/223/107 114/226/108
f 114/226/108 115/228/109 112/227/106
f 99/142/97 112/227/106 115/228/109
f 115/228/109 98/141/96 99/142/97
f 88/123/86 125/229/119 86/121/84
f 123/230/117 86/121/84 125/229/119
f 125/229/119 124/231/118 123/230/117
f 2/2/2 123/230/117 124/231/118
f 124/231/118 3/3/3 2/2/2
f 30/42/28 78/232/76 28/40/26
f 28/40/26 78/232/76 79/233/77
f 79/233/77 35/47/33 28/40/26
f 35/47/33 79/233/77 33/45/31
f 68/82/66 64/78/62 122/234/116
f 121/235/115 122/234/116 64/78/62
f 120/236/114 121/235/115 64/78/62
f 85/120/83 120/236/114 64/78/62
f 58/72/56 77/100/75 116/237/110
f 58/72/56 116/237/110 117/238/111
f 58/72/56 117/238/111 118/239/112
f 58/72/56 118/239/112 119/240/113
f 58/72/56 119/240/113 61/75/59
